<?xml version="1.0" encoding="utf-8"?>
<!-- Generator: Adobe Illustrator 24.1.2, SVG Export Plug-In . SVG Version: 6.00 Build 0)  -->
<svg version="1.1" id="Layer_1" xmlns="http://www.w3.org/2000/svg" xmlns:xlink="http://www.w3.org/1999/xlink" x="0px" y="0px"
	 viewBox="0 0 2026.8 242.7" style="enable-background:new 0 0 2026.8 242.7;" xml:space="preserve">
<style type="text/css">
	.st0{fill:#e83c38;}
</style>
<g>
	<path class="st0" d="M0,157.8c0-11.7,0.7-26.6,1-34.5H28c-0.3,8.6-1,21.1-1,34.9c0,36.9,20,58.3,54.6,58.3
		c37.3,0,57.3-23.5,57.3-72.8V12.1h29v130.5c0,65.3-31.1,100.1-85.6,100.1C30.7,242.7,0,211,0,157.8z"/>
	<path class="st0" d="M210.9,190.2c0-24.2,16.9-44.9,62.5-44.9h69.4v-12.4c0-29.3-17.3-43.5-52.1-43.5c-31.4,0-48.7,11.7-48.7,34.9
		c0,1,0,3.5,0.3,6.2h-25.5c-0.3-2.4-0.7-7.3-0.7-10.4c0-33.8,29-54.2,75.3-54.2c50.1,0,79.1,24.9,79.1,69.4v103.9h-27.6
		c0.3-7.9,1-23.8,1.4-40.4h-0.3c-5.9,26.2-27.3,43.2-69.7,43.2C235.4,242,210.9,222.3,210.9,190.2z M342.8,167.8v-2.4h-67
		c-28,0-39,8.3-39,24.9c0,17.3,15.9,28.3,42.8,28.3C318.3,218.6,342.8,198.9,342.8,167.8z"/>
	<path class="st0" d="M410.1,154c0-53.9,32.5-88,83.6-88c45.6,0,74.9,27.6,74.9,71.1h-25.5c-0.3-28.3-19.3-46.3-49-46.3
		c-34.2,0-56.3,24.5-56.3,63.2s21.4,63.2,54.6,63.2c31.1,0,51.1-17.6,51.4-45.6h25.5c0,42.8-30.4,70.4-77.7,70.4
		C441.9,242,410.1,207.8,410.1,154z"/>
	<path class="st0" d="M605.5,154.3c0-53.9,33.5-88.4,86.3-88.4c52.8,0,86.3,34.5,86.3,88.4c0,53.5-33.5,87.7-86.3,87.7
		C639,242,605.5,207.8,605.5,154.3z M750.5,154.3c0-38.7-22.8-63.5-58.7-63.5c-35.9,0-58.7,24.9-58.7,63.5
		c0,38.3,22.8,62.8,58.7,62.8C727.7,217.2,750.5,192.7,750.5,154.3z"/>
	<path class="st0" d="M847.9,199.9h-0.3c0,13.5,0.7,30.4,1.4,39.4h-27.6V0h27.6v81.8c0,6.9-0.3,20.7-0.7,29h0.3
		c7.6-27.3,32.5-44.9,69.1-44.9c49,0,79.1,33.1,79.1,84.9c0,55.6-30.7,91.1-78.4,91.1C879.6,242,855.1,225.5,847.9,199.9z
		 M969.1,151.6c0-36.9-21.4-60.8-56.6-60.8c-38.7,0-63.5,24.9-63.5,63.5v9c0,32.8,24.5,53.9,62.5,53.9
		C946.6,217.2,969.1,191.6,969.1,151.6z"/>
</g>
<g>
	<path class="st0" d="M1328.8,145.8l-90.9-134.5l35.6,0.1L1345,122l0.7,0l72-110.4l31.8,0.1l-91.7,134.1l-0.2,92.9l-29-0.1
		L1328.8,145.8z"/>
	<path class="st0" d="M1433,154c0.1-53.9,33.7-88.3,86.5-88.2c52.8,0.1,86.3,34.7,86.2,88.5c-0.1,53.5-33.7,87.6-86.5,87.5
		C1466.3,241.7,1432.9,207.5,1433,154z M1578,154.2c0.1-38.7-22.7-63.6-58.6-63.6c-35.9-0.1-58.7,24.8-58.8,63.4
		c-0.1,38.3,22.7,62.9,58.6,62.9C1555.1,217,1577.9,192.6,1578,154.2z"/>
	<path class="st0" d="M1640.1,154.3c0.1-53.9,33.7-88.3,86.5-88.2c52.8,0.1,86.2,34.7,86.2,88.5c-0.1,53.5-33.7,87.6-86.5,87.5
		C1673.5,242.1,1640,207.9,1640.1,154.3z M1785.1,154.6c0.1-38.7-22.7-63.6-58.6-63.6c-35.9-0.1-58.7,24.8-58.8,63.4
		c-0.1,38.3,22.7,62.9,58.6,62.9C1762.2,217.4,1785.1,192.9,1785.1,154.6z"/>
	<path class="st0" d="M1854.3,69.1l27.6,0.1l-0.8,45.9l0.3,0c9.4-29.7,33.2-48.6,74-48.5c44.9,0.1,71.4,26,71.3,66.8l-0.2,106.7
		l-27.6-0.1l0.2-100.8c0.1-29-16.5-47.7-53.1-47.7c-39-0.1-64.3,23.7-64.3,64.4l-0.2,83.9l-27.6-0.1L1854.3,69.1z"/>
</g>
<path class="st0" d="M1081.2,148.2c-2,0.7-1.8,3.6,0.3,4c6.7,1.2,14.7,3.8,21.8,9.6c4.5,3.7,7.4,7.6,9.3,10.3
	c5.3,7.3,8.4,14.7,10.2,20.7c0.6,1.9,3.3,2,3.9,0c1.9-5.9,4.8-13,9.5-20.3c6.3-9.8,13.1-15.9,15.1-17.6
	c11.5-9.8,24.3-14.4,34.2-16.5c2.1-0.4,2.2-3.4,0.2-4c-3-0.9-6.2-2.2-9.5-4c-7.6-4.1-12.1-9.1-15.8-13.3c-4.1-4.6-10-12.2-14.8-23.1
	c-0.8-1.8-3.3-1.6-3.9,0.2c-1.9,6.3-5.2,14.2-11.2,22c-7.6,9.8-15.8,14.9-24.3,20C1100.4,140,1092,144.4,1081.2,148.2z"/>
</svg>
