<?xml version="1.0" encoding="utf-8"?>
<!-- Generator: Adobe Illustrator 24.2.1, SVG Export Plug-In . SVG Version: 6.00 Build 0)  -->
<svg version="1.1" id="Layer_1" xmlns="http://www.w3.org/2000/svg" xmlns:xlink="http://www.w3.org/1999/xlink" x="0px" y="0px"
	 viewBox="0 0 650 650" style="enable-background:new 0 0 650 650;" xml:space="preserve">
<style type="text/css">
	.st0{fill:none;stroke:#111112;stroke-width:7;stroke-miterlimit:10;}
</style>
<g transform="translate(-20.2 -20.2)">
	<path class="st0" d="M345.2,345.2l94.2-94.2c83.9-83.9,227.3-24.5,227.3,94.2l0,0c0,118.7-143.4,178.1-227.3,94.2L345.2,345.2z"/>
	<path class="st0" d="M345.2,345.2l34.5-128.7c30.7-114.6,184.6-134.9,243.9-32.1l0,0c59.3,102.7-35.2,225.9-149.8,195.2
		L345.2,345.2z"/>
	<path class="st0" d="M345.2,345.2l-34.5-128.7C280,102,403.2,7.4,505.9,66.8l0,0c102.7,59.3,82.5,213.2-32.1,243.9L345.2,345.2z"/>
	<path class="st0" d="M345.2,345.2L251,251c-83.9-83.9-24.5-227.3,94.2-227.3l0,0c118.7,0,178.1,143.4,94.2,227.3L345.2,345.2z"/>
	<path class="st0" d="M345.2,345.2l-128.7-34.5C101.9,280,81.7,126.1,184.4,66.8l0,0c102.7-59.3,225.9,35.2,195.2,149.8L345.2,345.2
		z"/>
	<path class="st0" d="M345.2,345.2l-128.7,34.5C102,410.4,7.4,287.2,66.8,184.5l0,0C126.1,81.8,280,102,310.7,216.6L345.2,345.2z"/>
	<path class="st0" d="M345.2,345.2L251,439.4c-83.9,83.9-227.3,24.5-227.3-94.2l0,0c0-118.7,143.4-178.1,227.3-94.2L345.2,345.2z"/>
	<path class="st0" d="M345.2,345.2l-34.5,128.7C280,588.5,126.1,608.7,66.8,506l0,0C7.4,403.3,101.9,280.1,216.5,310.8L345.2,345.2z
		"/>
	<path class="st0" d="M345.2,345.2l34.5,128.7c30.7,114.6-92.5,209.1-195.2,149.8l0,0C81.8,564.3,102,410.4,216.6,379.7L345.2,345.2
		z"/>
	<path class="st0" d="M345.2,345.2l94.2,94.2c83.9,83.9,24.5,227.3-94.2,227.3l0,0c-118.7,0-178.1-143.4-94.2-227.3L345.2,345.2z"/>
	<path class="st0" d="M345.2,345.2l128.7,34.5c114.6,30.7,134.9,184.6,32.1,243.9l0,0C403.3,683,280.1,588.5,310.8,473.9
		L345.2,345.2z"/>
	<path class="st0" d="M345.2,345.2l128.7-34.5C588.5,280,683,403.2,623.6,505.9l0,0c-59.3,102.7-213.2,82.5-243.9-32.1L345.2,345.2z
		"/>
</g>
</svg>
