<?xml version="1.0" encoding="utf-8"?>
<!-- Generator: Adobe Illustrator 25.0.0, SVG Export Plug-In . SVG Version: 6.00 Build 0)  -->
<svg version="1.1" id="Layer_1" xmlns="http://www.w3.org/2000/svg" xmlns:xlink="http://www.w3.org/1999/xlink" x="0px" y="0px"
	 viewBox="0 0 1000 1000" style="enable-background:new 0 0 1000 1000;" xml:space="preserve">
<style type="text/css">
	.st0{clip-path:url(#SVGID_2_);}
	.st1{display:none;}
	.st2{display:inline;}
	.st3{fill:#FFCB55;}
	.st4{fill:#E3E3E3;}
</style>
<g>
	<g>
		<defs>
			<rect id="SVGID_1_" x="-115.1" y="-99.2" width="1214.1" height="1214.1"/>
		</defs>
		<clipPath id="SVGID_2_">
			<use xlink:href="#SVGID_1_"  style="overflow:visible;"/>
		</clipPath>
		<g class="st0">
			<g>
				<defs>
					<rect id="SVGID_3_" x="-120.1" y="-104.2" width="1224.1" height="1224.1"/>
				</defs>
				<clipPath id="SVGID_4_">
					<use xlink:href="#SVGID_3_"  style="overflow:visible;"/>
				</clipPath>
				<g style="clip-path:url(#SVGID_4_);">
					
						<image style="overflow:visible;" width="2551" height="2551" xlink:href="54A68E47.jpg"  transform="matrix(0.48 0 0 0.48 -120.24 -104.24)">
					</image>
				</g>
			</g>
		</g>
	</g>
</g>
<g id="Layer_1_1_" class="st1">
	<g class="st2">
		<path d="M450,517.3v-7h19.4v6.6c0,9.2,4,12.6,10.9,12.6c7,0,10.3-4.2,10.3-11.6v-64.8h21.1v65.2c0,7.7-1.9,13.8-5.8,18.5
			c-4.9,6.2-13.2,10-24.4,10C460.5,546.9,450,535.5,450,517.3z"/>
	</g>
	<polygon class="st2" points="550,453.1 511.6,515.7 511.6,481.4 529.4,453.1 	"/>
</g>
<path d="M779.5,233.5h-88L549.8,446.4V233.5h-74.5v359.7c0,35.3-9,61.6-25.8,79.6c-17.4,17.9-38.7,26.9-65,26.9
	c-24.7,0-45.4-7.8-62.2-23.5c-16.8-15.7-26.9-38.7-29.7-70L220.3,619c4.5,47.1,21.9,83.5,52.7,108.7c30.8,25.8,67.8,38.7,111.5,38.7
	c47.6,0,86.8-15.1,118.2-44.8c31.4-29.7,47.1-72.3,47.1-128.3v-21.3L779.5,233.5z"/>
<rect x="-490.2" y="91.8" class="st3" width="94.4" height="94.4"/>
<rect x="-490.2" y="260.6" class="st4" width="94.4" height="94.4"/>
</svg>
