<?xml version="1.0" encoding="utf-8"?>
<!-- Generator: Adobe Illustrator 24.2.3, SVG Export Plug-In . SVG Version: 6.00 Build 0)  -->
<svg version="1.1" id="Layer_1" xmlns="http://www.w3.org/2000/svg" xmlns:xlink="http://www.w3.org/1999/xlink" x="0px" y="0px"
	 viewBox="0 0 300 300" style="enable-background:new 0 0 300 300;" xml:space="preserve">
<style type="text/css">
	.st0{fill:none;}
	.st1{fill:#FFFFFF;}
</style>
<circle cx="150" cy="150" r="150"/>
<g>
	<circle class="st0" cx="150" cy="150" r="93.7"/>
	<path class="st1" d="M135.4,242.6l5.2,31.1l-4.1-0.8l-2.4-15.5c-0.7-4.6-1.4-9.1-1.6-11.9l-0.1,0c-1.1,2.3-3.5,6.5-5.9,10.4
		l-8.1,13.7l-4-0.7l16.4-27.2L135.4,242.6z"/>
	<path class="st1" d="M102.5,263.8l11-27.5l3.6,1.5l-11,27.5L102.5,263.8z"/>
	<path class="st1" d="M101.4,239.9c1.2-3.5,0.2-6.4-3.4-8.7c-3.9-2.5-6.6-1.6-8.1,0.8c-1.6,2.5-1.3,4.7,3,9.1c5,5.2,5.8,8.5,3.5,12
		c-2.4,3.7-7,5-12.6,1.5c-6-3.8-6.2-8.8-4.5-12.3l3.4,2.2c-0.9,2.5-0.7,5.2,2.9,7.5c3.1,1.9,5.6,1.7,7.1-0.7c1.5-2.3,0.7-4.2-3-8
		c-6-6.3-5.5-9.8-3.5-13.1c2.6-4,7.6-5.3,13.7-1.4c6.3,4,6.8,9.2,4.9,13.4L101.4,239.9z"/>
	<path class="st1" d="M64.5,238.8l20.2-21.7l2.9,2.7l-20.2,21.7L64.5,238.8z"/>
	<path class="st1" d="M55,223.3l5.7,7.6l-2.7,2l-13.8-18.5l2.7-2l5.7,7.7l21.1-15.7l2.4,3.2L55,223.3z"/>
	<path class="st1" d="M43,159.6l3.2-0.8l7.3,30.5l-3.2,0.8L43,159.6z"/>
	<path class="st1" d="M57.5,135.1l-31.1,5.1l0.8-4.1l15.5-2.4c4.6-0.7,9.2-1.4,12-1.5l0-0.1c-2.3-1.1-6.5-3.6-10.4-5.9l-13.7-8.1
		l0.7-4l27.1,16.4L57.5,135.1z"/>
	<path class="st1" d="M36.3,102.2l27.5,11.1l-1.5,3.6l-27.5-11.1L36.3,102.2z"/>
	<path class="st1" d="M60.3,101.1c3.5,1.3,6.4,0.2,8.7-3.4c2.5-3.9,1.6-6.6-0.7-8.1c-2.5-1.6-4.7-1.3-9.1,2.9c-5.2,5-8.5,5.7-12,3.5
		c-3.7-2.4-5-7.1-1.4-12.6c3.8-6,8.8-6.2,12.3-4.5l-2.2,3.4c-2.5-0.9-5.2-0.7-7.5,2.9c-2,3.1-1.7,5.6,0.7,7.1c2.3,1.5,4.2,0.7,8-3
		c6.3-6,9.8-5.5,13.1-3.4c4,2.6,5.3,7.6,1.4,13.7c-4,6.3-9.2,6.8-13.4,4.8L60.3,101.1z"/>
	<path class="st1" d="M61.4,64.2l21.6,20.3l-2.7,2.9L58.8,67L61.4,64.2z"/>
	<path class="st1" d="M77,54.8l-7.7,5.7l-2-2.7L85.9,44l2,2.7l-7.7,5.7l15.7,21.1l-3.2,2.4L77,54.8z"/>
	<path class="st1" d="M140.8,43l0.8,3.2L111,53.4l-0.8-3.2L140.8,43z"/>
	<path class="st1" d="M165.2,57.5l-5-31.2l4.1,0.8l2.3,15.5c0.7,4.6,1.4,9.2,1.5,12l0.1,0c1.1-2.3,3.6-6.5,5.9-10.4l8.2-13.6l4,0.8
		l-16.5,27.1L165.2,57.5z"/>
	<path class="st1" d="M198.2,36.5l-11.2,27.5l-3.6-1.5L194.6,35L198.2,36.5z"/>
	<path class="st1" d="M199.1,60.4c-1.3,3.4-0.3,6.4,3.4,8.7c3.9,2.5,6.6,1.7,8.1-0.7c1.6-2.5,1.3-4.7-2.9-9.1
		c-4.9-5.2-5.7-8.5-3.4-12.1c2.4-3.7,7.1-5,12.6-1.4c5.9,3.8,6.2,8.8,4.4,12.3l-3.4-2.2c0.9-2.5,0.8-5.2-2.9-7.5
		c-3-2-5.6-1.7-7.1,0.7c-1.5,2.3-0.7,4.2,3,8.1c6,6.3,5.5,9.9,3.4,13.1c-2.6,4-7.6,5.2-13.7,1.3c-6.3-4-6.7-9.2-4.8-13.4L199.1,60.4
		z"/>
	<path class="st1" d="M236.1,61.7l-20.4,21.6l-2.8-2.7L233.3,59L236.1,61.7z"/>
	<path class="st1" d="M245.4,77.3l-5.7-7.7l2.7-2l13.7,18.6l-2.7,2l-5.7-7.7l-21.2,15.6l-2.4-3.2L245.4,77.3z"/>
	<path class="st1" d="M257,141.1l-3.2,0.7l-7.1-30.5l3.2-0.7L257,141.1z"/>
	<path class="st1" d="M242.4,165.5l31.2-4.9l-0.8,4.1l-15.5,2.3c-4.6,0.7-9.2,1.3-12,1.5l0,0.1c2.3,1.1,6.5,3.6,10.4,6l13.6,8.2
		l-0.8,4l-27-16.6L242.4,165.5z"/>
	<path class="st1" d="M263.4,198.6l-27.4-11.2l1.5-3.6l27.4,11.2L263.4,198.6z"/>
	<path class="st1" d="M239.4,199.4c-3.4-1.3-6.4-0.3-8.7,3.3c-2.5,3.9-1.7,6.6,0.7,8.1c2.5,1.6,4.7,1.3,9.1-2.9
		c5.2-4.9,8.6-5.7,12.1-3.4c3.7,2.4,5,7.1,1.4,12.6c-3.9,5.9-8.9,6.1-12.3,4.4l2.2-3.4c2.5,1,5.2,0.8,7.6-2.9c2-3,1.7-5.6-0.7-7.1
		c-2.3-1.5-4.2-0.7-8.1,2.9c-6.3,6-9.9,5.4-13.1,3.3c-4-2.6-5.2-7.6-1.3-13.7c4.1-6.3,9.2-6.7,13.4-4.8L239.4,199.4z"/>
	<path class="st1" d="M238,236.4l-21.5-20.4l2.7-2.8l21.5,20.4L238,236.4z"/>
	<path class="st1" d="M222.4,245.7l7.7-5.6l2,2.7l-18.6,13.6l-2-2.7l7.7-5.7l-15.5-21.2l3.2-2.3L222.4,245.7z"/>
	<path class="st1" d="M158.6,257l-0.7-3.2l30.6-7l0.7,3.2L158.6,257z"/>
</g>
<g>
</g>
<g>
</g>
<g>
</g>
<g>
</g>
<g>
</g>
</svg>
