<?xml version="1.0" encoding="utf-8"?>
<!-- Generator: Adobe Illustrator 24.2.3, SVG Export Plug-In . SVG Version: 6.00 Build 0)  -->
<svg version="1.1" id="Layer_1" xmlns="http://www.w3.org/2000/svg" xmlns:xlink="http://www.w3.org/1999/xlink" x="0px" y="0px"
	 viewBox="0 0 300 300" style="enable-background:new 0 0 300 300;" xml:space="preserve">
<style type="text/css">
	.st0{fill:none;}
	.st1{fill:#FFFFFF;}
</style>
<circle cx="150" cy="150" r="150"/>
<g>
	<circle class="st0" cx="150" cy="150" r="99"/>
	<path class="st1" d="M136.7,255.5l3.8-6.7l3.2,0.5L131,271.8l-3.9-0.7l-4.8-25.5l3.4,0.6l1.4,7.6L136.7,255.5z M127.5,256.7
		c1.2,6.7,1.9,10.2,2.1,12.1l0,0c0.9-1.9,3-5.7,5.8-10.8L127.5,256.7z"/>
	<path class="st1" d="M110.8,267.1l-8.6-3.5c-4.7-1.9-5.9-5.4-4.6-8.5c1.1-2.6,3.2-3.7,5.2-3.6c-1.4-1.1-3.1-3.7-1.8-7
		c1.7-4.2,5.9-5.3,10.2-3.5l8.8,3.6L110.8,267.1z M106.6,254.5c-3.3-1.3-5-0.6-5.9,1.6c-0.8,2,0,4,2.7,5.1l5.6,2.3l2.8-6.9
		L106.6,254.5z M116.1,245.9l-5.6-2.3c-2.8-1.2-5.3-0.6-6.5,2.2c-1,2.4-0.1,4.7,3.7,6.3l5,2L116.1,245.9z"/>
	<path class="st1" d="M76.2,234c3.9-5.4,10.4-8.1,16.6-3.6c5.8,4.2,5.8,11,1.8,16.6c-4,5.6-10.6,7.8-16.5,3.5
		C72.5,246.5,72,239.8,76.2,234z M91.7,245.1c3-4.3,3.6-9.5-0.7-12.6c-4.6-3.3-9.1-0.8-12.1,3.4c-3,4.3-3.6,9.3,0.8,12.4
		C84.2,251.5,88.7,249.3,91.7,245.1z"/>
	<path class="st1" d="M60.2,234.6l11.1-9.5c4.4-3.7,3.5-7.1,1.5-9.5c-2.4-2.8-5.3-3.6-9.6,0l-11.1,9.5l-2.1-2.5l11-9.4
		c6-5.1,10.6-3.3,13.9,0.7c3.3,3.8,4.3,8.8-1.4,13.6l-11.2,9.5L60.2,234.6z"/>
	<path class="st1" d="M44.5,208.2l3.7,6.9l-2.4,1.3l-8.9-16.7l2.4-1.3l3.7,6.9l19-10.2l1.5,2.9L44.5,208.2z"/>
	<path class="st1" d="M40.2,156.1l2.6-0.5l4.4,25.3l-2.6,0.5L40.2,156.1z"/>
	<path class="st1" d="M44.3,137.8l6.8,3.7l-0.5,3.2L28,132.3l0.6-3.9l25.4-5l-0.6,3.4l-7.6,1.5L44.3,137.8z M43,128.6
		c-6.7,1.3-10.2,2-12.1,2.2l0,0c1.9,0.9,5.8,3,10.8,5.7L43,128.6z"/>
	<path class="st1" d="M32.5,112l3.4-8.7c1.9-4.8,5.3-6,8.4-4.7c2.6,1,3.7,3.2,3.6,5.2c1.1-1.4,3.7-3.2,7-1.8
		c4.2,1.7,5.3,5.9,3.6,10.1L55,121L32.5,112z M45.1,107.7c1.3-3.3,0.5-5.1-1.7-5.9c-2-0.8-4,0.1-5,2.7l-2.2,5.6l6.9,2.7L45.1,107.7z
		 M53.7,117.1l2.2-5.6c1.1-2.8,0.6-5.3-2.2-6.4c-2.4-1-4.7-0.1-6.2,3.8l-2,5L53.7,117.1z"/>
	<path class="st1" d="M65.3,77c5.5,3.8,8.2,10.3,3.8,16.6c-4.1,5.9-10.9,6-16.6,2c-5.7-4-7.9-10.5-3.7-16.5
		C52.7,73.4,59.4,72.9,65.3,77z M54.4,92.7c4.3,3,9.6,3.5,12.6-0.8c3.2-4.6,0.7-9.1-3.5-12.1c-4.3-3-9.4-3.5-12.4,0.9
		C47.9,85.2,50.1,89.7,54.4,92.7z"/>
	<path class="st1" d="M64.4,61.1l9.6,11c3.8,4.3,7.2,3.4,9.5,1.4c2.7-2.4,3.6-5.3-0.1-9.6l-9.6-11l2.4-2.1l9.5,10.9
		c5.2,5.9,3.4,10.5-0.5,13.9c-3.8,3.3-8.7,4.4-13.6-1.3l-9.6-11.1L64.4,61.1z"/>
	<path class="st1" d="M90.7,45.1l-6.8,3.8l-1.3-2.4l16.6-9.1l1.3,2.4l-6.9,3.8l10.3,18.9L101,64L90.7,45.1z"/>
	<path class="st1" d="M142.8,40.2l0.5,2.6L118,47.5l-0.5-2.6L142.8,40.2z"/>
	<path class="st1" d="M161.2,44.2l-3.7,6.8l-3.2-0.5l12.2-22.7l3.9,0.6l5.3,25.3l-3.4-0.5l-1.6-7.6L161.2,44.2z M170.3,42.8
		c-1.4-6.7-2.1-10.2-2.3-12.1l0,0c-0.9,1.9-2.9,5.8-5.6,10.9L170.3,42.8z"/>
	<path class="st1" d="M186.8,32.1l8.7,3.3c4.8,1.8,6,5.2,4.8,8.4c-1,2.6-3.2,3.8-5.2,3.7c1.4,1.1,3.2,3.6,1.9,6.9
		c-1.6,4.3-5.8,5.4-10.1,3.7l-8.9-3.4L186.8,32.1z M182,53.4l5.6,2.2c2.8,1.1,5.3,0.5,6.4-2.3c0.9-2.4,0-4.7-3.8-6.2l-5-1.9
		L182,53.4z M191.3,44.7c3.3,1.3,5.1,0.5,5.9-1.8c0.8-2-0.1-4-2.8-5l-5.6-2.2l-2.7,6.9L191.3,44.7z"/>
	<path class="st1" d="M222.1,64.6c-3.8,5.5-10.2,8.3-16.5,4c-5.9-4-6.1-10.8-2.1-16.6c3.9-5.7,10.4-8,16.5-3.9
		C225.6,52,226.2,58.6,222.1,64.6z M206.3,53.8c-3,4.3-3.4,9.6,0.9,12.6c4.6,3.2,9.1,0.6,12-3.6c3-4.3,3.4-9.4-1-12.4
		C213.7,47.2,209.2,49.5,206.3,53.8z"/>
	<path class="st1" d="M238,63.5l-10.9,9.7c-4.3,3.8-3.4,7.2-1.3,9.5c2.4,2.7,5.4,3.5,9.6-0.2l10.9-9.7l2.2,2.4l-10.8,9.6
		c-5.9,5.2-10.5,3.5-13.9-0.4c-3.4-3.8-4.5-8.7,1.1-13.6l11-9.8L238,63.5z"/>
	<path class="st1" d="M254.3,89.6l-3.8-6.8l2.4-1.4l9.3,16.5l-2.4,1.3l-3.8-6.8L237.1,103l-1.6-2.8L254.3,89.6z"/>
	<path class="st1" d="M259.7,141.6l-2.6,0.5l-4.9-25.2l2.6-0.5L259.7,141.6z"/>
	<path class="st1" d="M255.9,160.1l-6.9-3.6l0.4-3.2l22.8,12l-0.6,3.9l-25.3,5.5l0.5-3.4l7.6-1.6L255.9,160.1z M257.4,169.2
		c6.6-1.4,10.2-2.2,12.1-2.4l0,0c-2-0.9-5.8-2.9-11-5.5L257.4,169.2z"/>
	<path class="st1" d="M268.3,185.6l-3.3,8.7c-1.8,4.8-5.2,6.1-8.3,4.9c-2.6-1-3.8-3.1-3.7-5.1c-1.1,1.4-3.6,3.2-6.9,2
		c-4.3-1.6-5.4-5.8-3.8-10.1l3.3-8.9L268.3,185.6z M246.9,181l-2.1,5.6c-1.1,2.8-0.5,5.3,2.4,6.4c2.4,0.9,4.7,0,6.1-3.9l1.9-5
		L246.9,181z M255.8,190.2c-1.2,3.3-0.4,5.1,1.8,5.9c2,0.8,4-0.2,5-2.8l2.1-5.6l-7-2.6L255.8,190.2z"/>
	<path class="st1" d="M236.2,221.2c-5.6-3.7-8.4-10.1-4.2-16.5c4-5.9,10.8-6.2,16.6-2.3c5.8,3.9,8.1,10.3,4,16.4
		C248.8,224.5,242.2,225.2,236.2,221.2z M246.8,205.3c-4.3-2.9-9.6-3.3-12.6,1.1c-3.1,4.7-0.5,9.1,3.8,12c4.3,2.9,9.4,3.3,12.4-1.2
		C253.5,212.7,251.1,208.2,246.8,205.3z"/>
	<path class="st1" d="M237.4,237.1l-9.8-10.8c-3.8-4.2-7.2-3.3-9.5-1.2c-2.7,2.4-3.5,5.4,0.3,9.6l9.8,10.8l-2.4,2.2L216,237
		c-5.3-5.8-3.6-10.4,0.2-13.9c3.7-3.4,8.6-4.5,13.7,1l9.9,10.9L237.4,237.1z"/>
	<path class="st1" d="M211.5,253.6l6.8-3.9l1.4,2.4l-16.4,9.4l-1.4-2.4l6.8-3.9l-10.7-18.6l2.8-1.6L211.5,253.6z"/>
	<path class="st1" d="M159.5,259.6L159,257l25.1-5.2l0.5,2.6L159.5,259.6z"/>
</g>
<g>
</g>
<g>
</g>
<g>
</g>
<g>
</g>
<g>
</g>
</svg>
