<?xml version="1.0" encoding="utf-8"?>
<!-- Generator: Adobe Illustrator 24.2.3, SVG Export Plug-In . SVG Version: 6.00 Build 0)  -->
<svg version="1.1" id="Layer_1" xmlns="http://www.w3.org/2000/svg" xmlns:xlink="http://www.w3.org/1999/xlink" x="0px" y="0px"
	 viewBox="0 0 300 300" style="enable-background:new 0 0 300 300;" xml:space="preserve">
<style type="text/css">
	.st0{fill:#666666;}
	.st1{fill:none;}
	.st2{fill:#FFFFFF;}
</style>
<circle class="st0" cx="150" cy="150" r="150"/>
<g>
	<circle class="st1" cx="150" cy="150" r="95.9"/>
	<path class="st2" d="M119.4,248.9c1.9-3.9,5.6-6.4,11.1-5.3c7.3,1.4,9.8,7.7,8.5,14.6c-1.3,6.6-6.2,11.9-13.5,10.4
		c-5.7-1.1-8.2-5-8.1-9.2l3.2,0.6c0.3,2.8,1.7,5.2,5.5,5.9c5.4,1.1,8.5-3.4,9.5-8.3c0.9-4.8-0.1-10.2-5.7-11.3
		c-3.7-0.7-5.8,1.1-7.2,3.3L119.4,248.9z"/>
	<path class="st2" d="M92.5,242.7c3-6.2,9-10,16.1-6.6c6.6,3.2,7.8,10,4.7,16.4c-3.1,6.4-9.3,9.7-16,6.4
		C90.9,255.9,89.3,249.3,92.5,242.7z M110.1,251.2c2.3-4.8,1.9-10.2-2.9-12.6c-5.2-2.5-9.3,0.8-11.6,5.5c-2.3,4.8-2,10,3,12.4
		C103.6,258.9,107.8,255.9,110.1,251.2z"/>
	<path class="st2" d="M95,229.2L78.8,248l-3.3-2.8c1.1-6.7,3.3-21.1,4-24l0,0c-1.9,2.6-4.5,5.5-7.1,8.6L66,237l-2.3-2l16.2-18.8
		l3.1,2.7c-1,6.2-3.6,21.5-4.2,24.6l0.1,0c1.7-2.2,4.4-5.4,7.4-8.8l6.5-7.5L95,229.2z"/>
	<path class="st2" d="M55.7,220.8l4.7,6.4l-2.3,1.7l-11.4-15.6l2.3-1.7l4.7,6.5l17.8-13l2,2.7L55.7,220.8z"/>
	<path class="st2" d="M58.8,199l7.9-0.8l1.4,3l-26.2,2.7l-1.7-3.6l18.4-19l1.5,3.2l-5.5,5.7L58.8,199z M52.4,192
		c-4.9,5-7.4,7.6-8.9,8.9l0,0c2.2-0.4,6.6-0.8,12.4-1.5L52.4,192z"/>
	<path class="st2" d="M47.1,161.3c4.3,0.2,8.1,2.6,9.2,8.1c1.6,7.2-3.2,12.1-10,13.6c-6.6,1.4-13.3-1-14.9-8.3
		c-1.2-5.7,1.4-9.5,5.3-11.1l0.7,3.2c-2.5,1.4-4.1,3.6-3.2,7.4c1.2,5.4,6.5,6.5,11.4,5.4c4.8-1,9.3-4.2,8.1-9.8
		c-0.8-3.7-3.3-4.9-5.8-5.3L47.1,161.3z"/>
	<path class="st2" d="M32.1,150.7l-0.1,8l-2.8,0l0.3-19.3l2.8,0l-0.1,8l22,0.4L54,151L32.1,150.7z"/>
	<path class="st2" d="M54.1,101.9l2.6,0.9l-8.8,24.7l-2.6-0.9L54.1,101.9z"/>
	<path class="st2" d="M78.1,75.6c2.5,3.6,2.9,8-0.7,12.3c-4.8,5.7-11.5,4.9-16.9,0.4c-5.2-4.3-7.4-11.1-2.6-16.9
		c3.8-4.5,8.4-4.7,12-2.7l-2.1,2.5c-2.6-1.1-5.3-1-7.9,2c-3.5,4.2-1.1,9.1,2.7,12.3c3.7,3.1,9,4.8,12.7,0.4c2.5-2.9,1.8-5.6,0.6-7.9
		L78.1,75.6z"/>
	<path class="st2" d="M96.5,55c4,5.6,4.4,12.7-2,17.2c-5.9,4.2-12.5,2-16.7-3.8c-4.1-5.8-4-12.8,2.1-17.1C85.6,47.2,92.2,49,96.5,55
		z M80.6,66.3c3.1,4.4,8,6.6,12.4,3.5c4.7-3.3,3.8-8.5,0.7-12.8c-3.1-4.4-7.8-6.5-12.3-3.4C76.9,56.9,77.5,62,80.6,66.3z"/>
	<path class="st2" d="M107.1,63.6l-8.7-23.2l4.1-1.5c5.4,4.2,16.9,13,19.2,15.1l0,0c-1.3-2.9-2.7-6.6-4.1-10.3l-3.4-9.1l2.9-1.1
		l8.7,23.2l-3.8,1.4c-5-3.9-17.1-13.5-19.5-15.6l-0.1,0c1.2,2.6,2.6,6.5,4.2,10.7l3.5,9.3L107.1,63.6z"/>
	<path class="st2" d="M133.4,33.2l-7.9,1l-0.4-2.8l19.2-2.4l0.4,2.8l-8,1l2.8,21.8l-3.3,0.4L133.4,33.2z"/>
	<path class="st2" d="M151,46.5l-3.1,7.3l-3.3-0.2l10.3-24.2l4,0.2l7.8,25.3l-3.5-0.2l-2.3-7.6L151,46.5z M160.2,44.2
		c-2-6.6-3.1-10.2-3.5-12.1l0,0c-0.7,2.1-2.4,6.2-4.6,11.6L160.2,44.2z"/>
	<path class="st2" d="M189.6,54.4c-2.3,3.7-6.2,5.8-11.6,4.2C171,56.5,169,50,171,43.3c1.9-6.5,7.2-11.2,14.4-9.1
		c5.6,1.7,7.7,5.8,7.2,10l-3.1-0.9c-0.1-2.8-1.2-5.3-5-6.4c-5.3-1.6-8.8,2.6-10.2,7.4c-1.4,4.7-0.8,10.2,4.7,11.8
		c3.7,1.1,5.9-0.6,7.5-2.6L189.6,54.4z"/>
	<path class="st2" d="M206.1,46.3l-7-3.9l1.4-2.5l16.8,9.4l-1.4,2.5l-7-3.9l-10.8,19.2l-2.9-1.6L206.1,46.3z"/>
	<path class="st2" d="M238.3,89.1l-2,1.8l-17.4-19.6l2.1-1.8L238.3,89.1z"/>
	<path class="st2" d="M249.9,122.8c-4.3,0.5-8.4-1.3-10.4-6.6c-2.7-6.9,1.2-12.4,7.8-15c6.3-2.4,13.3-1.1,16,5.9
		c2.1,5.4,0.1,9.6-3.5,11.8l-1.2-3.1c2.2-1.8,3.5-4.2,2-7.9c-2-5.1-7.4-5.4-12.1-3.6c-4.6,1.8-8.6,5.6-6.5,10.9
		c1.4,3.6,4,4.3,6.6,4.3L249.9,122.8z"/>
	<path class="st2" d="M259.1,148.9c-6.8,0.8-13.2-2.3-14.1-10.1c-0.8-7.3,4.3-11.9,11.4-12.7c7-0.8,13.1,2.6,14,10.1
		C271.1,143.1,266.4,148,259.1,148.9z M256.8,129.5c-5.3,0.6-9.7,3.8-9.1,9.1c0.7,5.7,5.6,7.5,10.9,6.9c5.3-0.6,9.5-3.7,8.9-9.1
		C266.8,130.8,262,128.9,256.8,129.5z"/>
	<path class="st2" d="M246.4,154l24.5,3.6l-0.6,4.3c-6.3,2.7-19.6,8.6-22.4,9.6l0,0c3.2,0.2,7,0.8,11,1.4l9.6,1.4l-0.4,3.1
		l-24.5-3.6l0.6-4.1c5.8-2.5,20.1-8.5,23-9.7l0-0.1c-2.8-0.2-7-0.8-11.4-1.5l-9.8-1.4L246.4,154z"/>
	<path class="st2" d="M260.3,191.7l2.9-7.4l2.6,1l-7.1,18l-2.6-1l2.9-7.5l-20.4-8.1l1.2-3.1L260.3,191.7z"/>
	<path class="st2" d="M240.2,200.7l-4.9-6.2l1.7-2.8l16.3,20.7l-2.1,3.4l-25.9-5.4l1.9-3l7.8,1.6L240.2,200.7z M237.8,209.9
		c6.8,1.5,10.4,2.2,12.3,2.8l0,0c-1.5-1.6-4.2-5.1-7.9-9.7L237.8,209.9z"/>
	<path class="st2" d="M214.7,230.8c-2.2-3.8-2.1-8.2,1.9-12.2c5.3-5.2,11.9-3.8,16.8,1.2c4.7,4.8,6.3,11.8,1,17
		c-4.2,4.1-8.8,3.9-12.2,1.5l2.3-2.3c2.5,1.3,5.2,1.5,8-1.3c3.9-3.9,2-9-1.5-12.5c-3.4-3.5-8.5-5.7-12.6-1.6
		c-2.7,2.7-2.4,5.4-1.3,7.8L214.7,230.8z"/>
	<path class="st2" d="M213.9,249.1l6.8-4.2l1.5,2.4l-16.4,10.2l-1.5-2.4l6.8-4.3l-11.7-18.6l2.8-1.8L213.9,249.1z"/>
	<path class="st2" d="M160.8,256.7l-0.6-2.7l25.6-5.8l0.6,2.7L160.8,256.7z"/>
</g>
<g>
</g>
<g>
</g>
<g>
</g>
<g>
</g>
<g>
</g>
</svg>
