<?xml version="1.0" encoding="utf-8"?>
<!-- Generator: Adobe Illustrator 24.3.0, SVG Export Plug-In . SVG Version: 6.00 Build 0)  -->
<svg version="1.1" xmlns="http://www.w3.org/2000/svg" xmlns:xlink="http://www.w3.org/1999/xlink" x="0px" y="0px"
	 viewBox="0 0 100 100" style="enable-background:new 0 0 100 100;" xml:space="preserve">
<style type="text/css">
	.st0{display:none;}
	.st1{display:inline;}
</style>
<g id="Layer_1" class="st0">
	<g class="st1">
		<path d="M0,67.3v-7h19.4v6.6c0,9.2,4,12.6,10.9,12.6c7,0,10.3-4.2,10.3-11.6V3.1h21.1v65.2c0,7.7-1.9,13.8-5.8,18.5
			c-4.9,6.2-13.2,10-24.4,10C10.5,96.9,0,85.5,0,67.3z"/>
	</g>
	<polygon class="st1" points="100,3.1 61.6,65.7 61.6,31.4 79.4,3.1 	"/>
</g>
<g id="Layer_2">
	<path d="M84.2,2.4L58.8,40.5v22.3L100,2.4H84.2z"/>
	<path d="M58.8,2.4v64.2c0,10-2.8,17.6-8.4,22.9c-5.6,5.3-12.6,8-21.1,8c-7.8,0-14.4-2.3-19.9-6.9C3.9,86.1,0.8,79.6,0,71.2
		l12.9-2.3c0.5,5.6,2.3,9.7,5.3,12.5c3,2.8,6.7,4.2,11.1,4.2c4.7,0,8.5-1.6,11.6-4.8c3-3.2,4.6-7.9,4.6-14.2V2.4H58.8z"/>
</g>
</svg>
