<?xml version="1.0" encoding="utf-8"?>
<!-- Generator: Adobe Illustrator 24.1.2, SVG Export Plug-In . SVG Version: 6.00 Build 0)  -->
<svg version="1.1" id="Layer_1" xmlns="http://www.w3.org/2000/svg" xmlns:xlink="http://www.w3.org/1999/xlink" x="0px" y="0px"
	 viewBox="0 0 500 500" style="enable-background:new 0 0 500 500;" xml:space="preserve">
<style type="text/css">
	.st0{display:none;}
	.st1{display:inline;}
	.st2{fill:#FFFFFF;}
	.st3{fill:#e83c38;}
</style>
<g id="Layer_1_1_" class="st0">
	<rect class="st1" width="501.6" height="501.6"/>
	<g class="st1">
		<polygon class="st2" points="252.8,398.5 57.9,398.5 57.9,293.9 148.3,293.9 148.3,101.5 252.8,101.5 		"/>
		<polygon class="st2" points="224.5,319.1 163.6,245.2 307.3,101.5 442.1,101.5 		"/>
	</g>
</g>
<g id="Layer_2_1_">
	<path class="st3" d="M438.7,27.4L323.9,204V27.4h-56v253.9c0,6-0.2,11.7-0.5,17.3c-4.5,83.5-42.7,123.3-110.1,123.3
		C90.6,421.9,52,380.6,52,309.3c0-26.7,1.3-50.6,2-67.3H2c-0.7,15.3-2,44-2,66.6c0,102.6,59.3,163.9,158.6,163.9
		c44.8,0,81.5-12.3,108.8-36.1c33.5-29.2,52.9-75.9,56-138.8c0.2-3.8,0.4-7.7,0.4-11.6L500,27.4H438.7z"/>
</g>
</svg>
