<?xml version="1.0" encoding="utf-8"?>
<!-- Generator: Adobe Illustrator 24.2.1, SVG Export Plug-In . SVG Version: 6.00 Build 0)  -->
<svg version="1.1" id="Layer_1" xmlns="http://www.w3.org/2000/svg" xmlns:xlink="http://www.w3.org/1999/xlink" x="0px" y="0px"
	 viewBox="0 0 1000 488" style="enable-background:new 0 0 1000 488;" xml:space="preserve">
<style type="text/css">
	.st0{fill:#212121;}
</style>
<g>
	<path class="st0" d="M21.9,156.8c9.7,0,17.6,9.4,17.6,20.7c0,13.5-7.5,55.8,29.2,55.8c24.8,0,34.8-21.6,34.8-83.7V101
		c0-20.7-3.4-71.5-3.4-79c0-10.7,9.7-17.9,19.4-17.9s19.1,7.2,19.1,17.9c0,7.2-3.4,59.6-3.4,79v61.8c0,56.4-20.7,81.5-66.8,81.5
		c-43.6,0-64.9-21.6-67.1-64.9v-1.9C1.2,166.2,10.3,156.8,21.9,156.8z"/>
	<path class="st0" d="M257.4,0C342.7,0,349,176.2,349,215.4c0,19.4-7.8,28.2-20.4,28.2c-12.2,0-19.4-14.7-18.8-47l2.5-81.5H311
		c0,38.2-20.7,77.4-53.6,77.4c-35.7,0-54.6-41.1-54.6-77.4H201l2.8,81.5c0.6,32.3-7.2,47-19.7,47c-12.2,0-20.4-8.8-20.4-28.2
		C163.7,176.2,171.8,0,257.4,0z M301.9,105c0-21.6-11.3-79.6-44.5-79.6s-45.5,58-45.5,79.6c0,21,12.9,52.7,45.5,52.7
		C287.8,157.7,301.9,126,301.9,105z"/>
	<path class="st0" d="M402.7,124.2c0,58,26.7,93.4,72.4,93.4c32.9,0,57.7-19.1,57.7-55.5c0-7.5,5.3-16.6,14.7-16.6
		c7.8,0,15,6.3,15,19.1c0,41.1-40.4,79.6-87.2,79.6c-61.1,0-104.4-49.8-104.4-119.7C371,53.3,414.3,3.1,475.4,3.1
		c45.8,0,87.2,30.4,87.2,64c0,14.4-8.8,25.7-19.8,25.7c-11.3,0-18.8-13.5-18.8-33.5c0-23.8-18.8-39.2-48.6-39.2
		C426.5,20.1,402.7,63.6,402.7,124.2z"/>
	<path class="st0" d="M584.6,125.1C584.6,52,628.5,3.4,694,3.4S803.1,52,803.1,125c0,71.8-43.6,119.8-109.1,119.8
		C628.5,244.9,584.6,196.9,584.6,125.1z M748.9,69.9C711,32,653.6,17.9,620.7,50.8c-32.9,32.9-19.8,91.6,18.5,128.9
		c37.6,37,95,50.8,127.9,17.5C799.7,164.3,786.5,107.5,748.9,69.9z"/>
	<path class="st0" d="M828.7,159.3V97.5c0-20.7-3.5-71.5-3.5-79c0-8.8,9.7-15,19.4-15l69.6,0.9C958.1,5,985,28.9,985,64.3
		c0,25.4-16.6,44.2-37.6,48.3c31,7.5,48.6,29.2,48.6,58.9c0,43.9-27.3,68-75.5,68c-53.6,0-69,0.9-75.9,0.9
		c-9.7,0-19.4-7.2-19.4-17.9C825.2,215.1,828.7,180,828.7,159.3z M953.4,64c0-20.1-15.7-32.6-43.9-32.9
		c-61.8-0.9-72.7,70.8-39.2,70.8h38.6C937.7,101.9,953.4,89.4,953.4,64z M964.4,169.9c0-33.9-20.7-53.6-65.8-53.6h-41.4
		c0,80.9-8.5,109.1,55.5,109.1C944,225.4,964.4,206,964.4,169.9z"/>
</g>
<g>
	<path class="st0" d="M92.1,244.3c23.2,0,45.1,16.3,45.1,40.8c0,31.7-21,39.2-21,69.3c0,19.4,17.6,38.6,43.6,38.6
		c25.7,0,42.6-19.1,42.6-38.6c0-30.1-21-37.6-21-69.3c0-24.5,22-40.8,45.1-40.8c20.7,0,28.2,9.7,28.2,24.1
		c0,30.4-60.5,9.7-60.5,33.2c0,16.9,41.4,27.3,41.4,58c0,17.2-19.8,37.6-51.1,37.6c-15.4,0-15.4,0.3-15.4,12.2
		c0,19.4,9.4,51.7,9.4,58.9c0,10.7-9.4,17.9-19.1,17.9S140,479,140,468.3c0-7.5,7.8-38.3,7.8-58.9c0-11.9-0.3-12.2-13.8-12.2
		c-31.4,0-51.1-20.7-51.1-37.6c0-30.7,41.4-41.1,41.4-58c0-23.5-60.5-5.9-60.5-33.2C63.9,254.1,71.4,244.3,92.1,244.3z"/>
	<path class="st0" d="M276.9,368.2c0-73,43.9-121.6,109.4-121.6s109.1,48.6,109.1,121.6c0,71.8-43.6,119.8-109.1,119.8
		C320.8,487.9,276.9,440,276.9,368.2z M441.2,313c-37.9-37.9-95.3-52-128.2-19.1c-32.9,32.9-19.8,91.6,18.5,128.9
		c37.6,37,95,50.8,127.9,17.5C492,407.4,478.8,350.6,441.2,313z"/>
	<path class="st0" d="M514.4,368.2c0-73,43.9-121.6,109.4-121.6s109.1,48.6,109.1,121.6c0,71.8-43.6,119.8-109.1,119.8
		C558.3,487.9,514.4,440,514.4,368.2z M678.6,313c-37.9-37.9-95.3-52-128.2-19.1c-32.9,32.9-19.8,91.6,18.5,128.9
		c37.6,37,95,50.8,127.9,17.5C729.4,407.4,716.3,350.6,678.6,313z"/>
	<path class="st0" d="M758.4,405.8V344c0-20.7-3.5-46.4-3.5-62.7c0-27,12.2-34.2,26.7-34.2c12.2,0,24.1,9.4,24.1,34.2
		c0,56.7,18.2,174.6,68.7,174.6c24.8,0,23.8-15.7,23.8-111.9c0-20.7-3.5-71.5-3.5-79c0-10.7,9.7-17.9,19.4-17.9s19.1,7.2,19.1,17.9
		c0,7.2-3.5,59.6-3.5,79v90c0,31-12.9,53-41.1,53c-64,0-97.8-97.2-97.8-171.2h-1.9l0.9,90c0,19.4,3.4,56.1,3.4,63.3
		c0,10.7-9.4,17.9-19.1,17.9c-9.7,0-19.4-7.2-19.4-17.9C754.9,461.6,758.4,426.5,758.4,405.8z"/>
</g>
</svg>
