<?xml version="1.0" encoding="utf-8"?>
<!-- Generator: Adobe Illustrator 24.0.0, SVG Export Plug-In . SVG Version: 6.00 Build 0)  -->
<svg version="1.1" id="Layer_1" xmlns="http://www.w3.org/2000/svg" xmlns:xlink="http://www.w3.org/1999/xlink" x="0px" y="0px"
	 viewBox="0 0 1000 526.83" style="enable-background:new 0 0 1000 526.83;" xml:space="preserve">
<g>
	<path d="M0,1.07h349.79v56.97H64.91v160.83h237.28v54.81H64.91v243.05H0V1.07z"/>
	<path d="M550.97,190.66c77.2,0,140,62.81,140,140s-62.81,140-140,140c-77.2,0-140-62.8-140-140S473.78,190.66,550.97,190.66
		 M550.97,134.49c-108.34,0-196.17,87.83-196.17,196.17c0,108.34,87.83,196.17,196.17,196.17S747.15,439,747.15,330.66
		C747.15,222.32,659.32,134.49,550.97,134.49L550.97,134.49z"/>
	<path d="M976.66,135.91c-13.43,1.59-26.38,4.69-38.83,8.85c-2.93,0.9-5.81,1.9-8.64,3.01c-26.17,10.13-49.63,25.69-68.98,45.34
		v-49.23H801.8v372.86h58.42V326.08C862.68,251,924.39,190.67,1000,190.67V134.5C992.11,134.5,984.29,134.97,976.66,135.91z"/>
</g>
</svg>
