<?xml version="1.0" encoding="utf-8"?>
<!-- Generator: Adobe Illustrator 22.1.0, SVG Export Plug-In . SVG Version: 6.00 Build 0)  -->
<svg version="1.1" id="Layer_1" xmlns="http://www.w3.org/2000/svg" xmlns:xlink="http://www.w3.org/1999/xlink" x="0px" y="0px"
	 viewBox="0 0 1000 1000" style="enable-background:new 0 0 1000 1000;" xml:space="preserve">
<style type="text/css">
@keyframes fillPulse {
  0% {fill: #d13a3a;}
  50% {fill: #5d90dd;}
  100% {fill: #d13a3a;}
}
	.st0{
  -webkit-animation: fillPulse 5s infinite;
     -moz-animation: fillPulse 5s infinite;
       -o-animation: fillPulse 5s infinite;
          animation: fillPulse 5s infinite;stroke:#232323;stroke-miterlimit:10;}
	.st1{fill:none;stroke:#232323;stroke-width:6;stroke-linecap:round;stroke-linejoin:round;stroke-miterlimit:10;}
	.st2{fill:#20232B;stroke:#232323;stroke-miterlimit:10;}
	.st3{fill:#20232B;stroke:#232323;stroke-width:6;stroke-linecap:round;stroke-linejoin:round;stroke-miterlimit:10;}
</style>
<g>
	<g>
		<path class="st0" d="M285.8,52.7c-23.1,10.8-45.7,27.6-49.3,52.5c-7.8,53.5,46.2,69.1,31.6,84c-14.6,14.9-20.8,53.8-16.6,78.1
			s10.2,70.3-13.2,108.4c-63.2,92.1-39.1,107.4-35.7,115.7s-6.2,27.4-8.3,36.4c-5.9,43.3,0.5,82.8,2.1,113.6
			c1.6,30.9-37.9,105.5,14.7,129.5s89.2,21.2,112.6,62.5c23.4,41.3,14,166.5,14,166.5h479.1c-42.5-13.3-115.6-57.3-175.1-95.7
			c-48.7-31.5-88.9-59.2-95.1-63.5c-0.6-7.4-1.1-14-1.5-18.4c-8.6-70.1-3.9-136.4,28.1-183.2c3.7-5.4,7.3-11.5,10.8-18.1
			c7.7,0.7,17.8,0.9,30.2-0.3c31.8-3.2,96.3-64.9,75.5-135.1c-4.7-15.9-14-22.5-22.1-27.5c47.6-91.3,37.7-161.3,14.8-209.3
			c0,0,0,0,0,0v0c0,0,0,0,0,0c-12-25-27.5-44.1-40.2-57c-12.8-13-24.3-27.3-33.8-42.8c-41.7-67.6-165.8-82.7-198.4-88.4
			C385.1,56.2,338.6,44.8,285.8,52.7C285.8,52.7,285.8,52.7,285.8,52.7"/>
		<path class="st1" d="M549.9,886.7c0,0-3.1-48.1-4.7-64.4c-8.6-70.1-3.9-136.4,28.1-183.2c3.7-5.4,7.3-11.5,10.8-18.1"/>
		<path class="st1" d="M268.2,189.3L268.2,189.3c59.4-11.8,134.5-0.6,219.5,38.8c5.6,2.6,11.3,5.3,17,8.2c0,0-0.8,67,34.3,109.9
			c35.1,42.9,14.8,118.5,14.8,118.5l24.2,17.9c0,0,23.9-37.8,38.7-15.2"/>
		<path class="st1" d="M211.3,771c41.5,2,87.6-6.5,123.5-15.7c67-17.1,123.1-11.7,157.4-29.6c34.3-17.9,69.1-96.7,69.1-96.7"/>
		<path class="st1" d="M546.7,840.1c0,0,189.9,134.7,270.2,159.9"/>
		<path class="st1" d="M193.2,538.7c1.7-0.2,3.6-0.5,5.5-0.9c5-1.3,10.2-0.9,15,0.9c7.9,2.9,19.1,8.3,27.1,16.9
			c13.5,14.5,40.5,21.1,48.5,35.5"/>
		<path class="st1" d="M194.2,610.7c2.2-0.2,4.4-0.3,6.7-0.3c9.4,0.1,24.7-0.9,38.6-7c12.6-5.5,35.8,1.5,35.8,1.5"/>
		<path class="st1" d="M192.2,579.2c10.8-1.1,25.9-0.3,46.2,5.5"/>
		<path class="st1" d="M194.5,660.1c11.6-1,27.5,0.9,48.6,9"/>
		<path class="st1" d="M211.8,508.8c0,0-1.9,7,1.6,19.1"/>
		<path class="st1" d="M245.4,446.1c0,0,37.8-2.8,40.9,29.8c3.1,32.6-32.2,30.8-43,24.9"/>
		<path class="st2" d="M206.9,480.9c0-7.3,27.5-8.1,36.4,1.4c8.8,9.5,2.8,15.9-16.3,10.6S206.9,484,206.9,480.9z"/>
		<path class="st1" d="M290.4,288.5c3.8-21.2,69.6-33.9,111.2-19.7c41.6,14.2,42.6,42.3,40.7,43.8c-2.9,2.4-50.4-21.4-80.2-19.9
			C322.5,294.7,285.9,313.8,290.4,288.5z"/>
		<path class="st1" d="M414.6,361.4c0,0-15.9-15.6-27.5-21.2c-22.3-10.8-62.7-26.3-79.8,31c0,0,34.2,4,63.3-3.8
			C381.4,364.7,414.6,361.4,414.6,361.4"/>
		<path class="st3" d="M367.5,333.7c0,0,2,31.5-18.6,33.8c-20.6,2.3-23.4-13.2-21.4-29.2C327.5,338.3,343.6,324.7,367.5,333.7z"/>
		<path class="st1" d="M667.7,458.1c47.6-91.3,37.7-161.3,14.8-209.3v0c-12-25-27.5-44.1-40.2-57c-12.8-13-24.3-27.3-33.8-42.8
			c-41.7-67.6-165.8-82.7-198.4-88.4c-25-4.3-71.5-15.8-124.3-7.8"/>
		<path class="st1" d="M607,475.1c0,0,3.7-3.7,9.7-7.8c11.4-7.9,32.9-20.4,51-9.2c8.1,5,17.4,11.6,22.1,27.5
			c20.8,70.2-43.8,131.9-75.5,135.1c-12.4,1.2-22.5,1-30.2,0.3c-12-1.1-18.1-3.4-18.1-3.4"/>
		<path class="st1" d="M602.6,517.5c0,0,24.8-52.9,54.9-46.2s32.2,75-6,111.9c-7.5,7.2-14.8,11.9-21.7,14.6"/>
		<path class="st1" d="M593.7,568.2c0,0-2.9,12,8,13.6c2.6,0.4,4.8,2.2,5.9,4.6c2.4,5.6,9.3,12.6,29.2-4.4c28.3-24.2,6-69.4,6-69.4"
			/>
		<path class="st1" d="M598.9,527.2c0,0,9.9,15.3-2.7,30.3"/>
		<path class="st1" d="M610,521.5c0,0,3.1,10.8,17.3,13.4c14.2,2.6,13,12.9,13,12.9"/>
		<path class="st1" d="M317.6,184.8c-26.5-27.5-53.3-40.5-77.3-45.8"/>
		<path class="st1" d="M252.9,97c0,0,105.5-16.9,147.4,99.3"/>
		<path class="st1" d="M395.5,96.9c7.2,3.7,102.5,28.7,92.2,131.1"/>
		<path class="st1" d="M504.7,236.2c0,0,55.8-47.4,98-50.6"/>
		<path class="st1" d="M510.9,111.6c0,0,53.1,41.2,34.7,95.8"/>
		<path class="st1" d="M553.7,228.1c0,0,8.7,40-6.9,73.6"/>
		<path class="st1" d="M593.4,211c0,0,46.9,56.4-14.5,176.6"/>
		<path class="st1" d="M622.3,201.2c0,0,79.3,83.8-12.3,233.6"/>
		<path class="st1" d="M682.5,248.8c0,0,34.4,113.1-28.4,185.9"/>
		<path class="st1" d="M577.6,861.9c0,0,52.5,24.8-29,138.1"/>
		<path class="st1" d="M641.7,903.7c0,0,12.1,42.2-25,96.3"/>
		<path class="st1" d="M397.6,889.8c0,0-7.8,48.8-26,73.8"/>
	</g>
	<path class="st1" d="M285.1,52.7c-23.1,10.8-45.7,27.6-49.3,52.5c-7.8,53.5,46.2,69.1,31.6,84c-14.6,14.9-20.8,53.8-16.6,78.1
		c4.2,24.2,10.2,70.3-13.2,108.4c-63.2,92.1-39.1,107.4-35.7,115.7s-6.2,27.4-8.3,36.4c-5.9,43.3,0.5,82.8,2.1,113.6
		c1.6,30.9-37.9,105.5,14.7,129.5s89.2,21.2,112.6,62.5c23.4,41.3,14,166.5,14,166.5"/>
</g>
</svg>
