<?xml version="1.0" encoding="utf-8"?>
<!-- Generator: Adobe Illustrator 22.1.0, SVG Export Plug-In . SVG Version: 6.00 Build 0)  -->
<svg id="Layer_1" xmlns="http://www.w3.org/2000/svg" viewBox="0 0 1000 1000">
        <style>
@keyframes fillPulse {
  0% {fill: #d13a3a;}
  50% {fill: #5d90dd;}
  100% {fill: #d13a3a;}
}
.sto {
  -webkit-animation: fillPulse 5s infinite;
     -moz-animation: fillPulse 5s infinite;
       -o-animation: fillPulse 5s infinite;
          animation: fillPulse 5s infinite;
}.st2,.st3{stroke:#20232b;stroke-miterlimit:10}.st2{stroke-width:7;stroke-linecap:round;stroke-linejoin:round;fill:none}.st3{fill:#20232b}</style><g class="sto" stroke="#20232b" stroke-miterlimit="10"><path d="M276 896.7c-.1 0-.3.1-.6.3-14 7-30.2 15-47.3 23.4-65.5 32.2-145 70.4-172.2 79.6h888.2c-42.5-13.3-115.6-57.3-175.1-95.7-.3-.2-.5-.3-.8-.5-48.3-31.3-88.2-58.7-94.4-63-.6-7.4-1.1-14-1.5-18.4-8.6-70.1-3.9-136.4 28.1-183.2 3.7-5.4 7.3-11.5 10.8-18.1 7.7.7 17.8.9 30.2-.3 31.8-3.2 96.3-64.9 75.5-135.1-4.7-15.9-14-22.5-22.1-27.5l-1 1.2c47.6-91.3 37.7-161.3 14.8-209.3-12-25-27.5-44.1-40.2-57-12.8-13-24.3-27.3-33.8-42.8-41.7-67.6-165.8-82.7-198.4-88.4-25-4.3-70.4-17-123.2-9.1-22.9 3.4-47 10.5-71.1 23.4-79.5 42.6-127.9 124.4-114.3 186.5 6.2 28.3 17.8 33.8 26.7 33.1 6.9-.5 12.2-4.7 12.4-4.9-3.3 6.7-6.1 13.2-8.5 19.7-3.7 10-6.6 19.7-8.9 29.2-10.5 43.3-9.2 81.7-25 113.9-28.5 58-14.8 230.7 26.5 282.1 17.3 21.5 45.4 31.5 77.1 34.5 0 .8 2.2 94.8-8.6 141.4l5.5-39.4c-.1-.1-19.8 9.9-48.8 24.4z"/><path d="M769 904.3c-.1-.3-.1-.5-.1-.5h-.6l.7.5z" stroke-width="6"/></g><path class="st2" d="M395.4 189.3c-34.2 6.8-63.2 21.2-86 42.2-7.2 6.6-13.8 14-19.7 21.9-9.5 12.8-17 25.3-23 37.5-3.3 6.7-6.1 13.2-8.5 19.7-3.7 10-6.6 19.7-8.9 29.2-10.5 43.3-9.2 81.7-25 113.9-28.5 58-14.8 230.7 26.5 282.1 17.3 21.5 45.4 31.5 77.1 34.5 3.5.3 7 .6 10.5.7M327.9 770.3s2.3 94.6-8.6 141.4M324.7 872.2S105 983.3 55.9 1000"/><path class="st2" d="M270.7 591.1s3.2-26.1 19.4-44.4c5.5-6.3 13.9-9.4 22.2-8.2 2.4.3 5.1.5 8.1.2M278.7 606.5s13.3 10 33.2 5.6c3.1-.7 6.3-1.2 9.5-1.4M319.4 579.2c-16.5 1.7-23.1 7.9-23.1 7.9M321.7 660.1c-20.6 1.7-28.2 12.1-29.2 12.1M315 507.8s-.3 10-8.3 17M347.8 357.4s-6.6 42.3-29.1 76.2 3.1 57.8 3.1 57.8M294.6 441.6s-37.4 50.9 1.7 59.2"/><path class="st3" d="M305.2 484c.6.7 1.3 1.4 1.9 2.1 2.1 2.3 6.5 7.8 3.7 11-3.6 4.2-12.3-4.4-14.5-7.9-2.3-3.5-5.5-10.7-.7-11 3.7-.3 7.8 3.8 9.6 5.8z"/><path class="st2" d="M249.3 339.8s27.3-29.8 61.6-25.7 24.2-22.2 0-23.2-52.7 19.7-52.7 19.7M246.8 389.6s6.8-35.7 33.8-35.7 37.9 14.2 37.9 26.3c0 .1-30 21.4-71.7 9.4"/><path d="M305.9 359.9c-1 2.5 4.8 23.1-20.4 27.3S275.2 355 275.2 355" fill="#20232b" stroke="#20232b" stroke-width="7" stroke-linecap="round" stroke-linejoin="round" stroke-miterlimit="10"/><path class="st2" d="M413 52.7c-22.9 3.4-47.1 10.5-71.1 23.4-79.5 42.7-127.9 124.5-114.3 186.6 10.9 50 38.7 28.7 39.2 28.2M246.8 267.4s18.2-45.2 62.6-35.9M257 216.8s14.2-52.7 113.5-20.9M282.6 149.7s36.7-21.2 84.9-10.7M276 896.6s-47.9 28-47.9 103.4M228.1 920.4s-37.8 29.7-41.8 79.6M422.9 916.9s5.7 34.8 19.7 46.7"/><path class="st3" d="M944.1 1000c-42.5-13.3-115.6-57.3-175.1-95.7-48.7-31.5-88.9-59.2-95.1-63.5-.6-7.4-1.1-14-1.5-18.4-8.6-70.1-3.9-136.4 28.1-183.2 3.7-5.4 7.3-11.5 10.8-18.1 7.7.7 17.8.9 30.2-.3 31.8-3.2 96.3-64.9 75.5-135.1-4.7-15.9-14-22.5-22.1-27.5l-1 1.2c47.6-91.3 37.7-161.3 14.8-209.3-12-25-27.5-44.1-40.2-57-12.8-13-24.3-27.3-33.8-42.8C693 82.7 568.9 67.6 536.3 61.9c-25-4.3-70.4-17-123.2-9.1-23.1 10.8-45.7 27.6-49.3 52.5-7.8 53.5 46.2 69.1 31.6 84-14.6 14.9-20.8 53.8-16.6 78.1s10.2 70.3-13.2 108.4c-63.2 92.1-39.1 107.4-35.7 115.7s-6.2 27.4-8.3 36.4c-5.9 43.3.5 82.8 2.1 113.6 1.6 30.9-37.9 105.5 14.7 129.5s89.2 21.2 112.6 62.5c23.4 41.3 14 166.5 14 166.5h479.1z"/>
      </svg>