<?xml version="1.0" encoding="utf-8"?>
<!-- Generator: Adobe Illustrator 22.1.0, SVG Export Plug-In . SVG Version: 6.00 Build 0)  -->
<svg version="1.1" id="Layer_1" xmlns="http://www.w3.org/2000/svg" xmlns:xlink="http://www.w3.org/1999/xlink" x="0px" y="0px"
	 viewBox="0 0 1000 1000" style="enable-background:new 0 0 1000 1000;" xml:space="preserve">
<style type="text/css">
@keyframes fillPulse {
  0% {fill: #d13a3a;}
  50% {fill: #5d90dd;}
  100% {fill: #d13a3a;}
}
	.st0{
  -webkit-animation: fillPulse 5s infinite;
     -moz-animation: fillPulse 5s infinite;
       -o-animation: fillPulse 5s infinite;
          animation: fillPulse 5s infinite;fill:#CFB3D3;}
	.st1{fill:#20232B;}
</style>
<path class="st0" d="M593.7,437.2c0-0.3,0-0.6-0.1-0.9c-0.2-1.7-0.7-3.3-1.3-4.9c-0.2-0.7-0.5-1.3-0.8-2c3.2-7.5,5.8-15.7,5.2-24
	c-0.5-8.7-5.3-16.7-12.8-21.1c-1.4-2.5-3.4-4.7-5.8-6.3c-8.6-6.3-19.3-12.8-30.3-11.7c-1.3-1.9-3-3.6-5-4.7c0.2-0.4,0.2-0.9,0.1-1.4
	c-1.5-10-12.4-16.3-21.2-19.2c-4.9-1.6-10.3-1.9-14.9,0.8c-0.8,0.5-1.6,1-2.3,1.7c-7.3-0.3-14.1-1.4-21.2-0.9
	c-7.4,0.5-16.7-0.2-22,5.7c-1-1.4-2.1-2.6-3.5-3.6c-4-2.8-9.3-2.1-13.2,0.7c-2.1,1.6-3.9,3.7-5.3,6c-0.8,1.2-1.5,2.5-1.9,4
	c-2.9,0.2-5.7,0.8-8.3,2c-7.2,3.3-10.3,10.1-12.8,17.1c-2,1.2-3.9,2.5-5.8,4c-7.5,5.9-12.1,15.1-8,24.4c0.2,0.4,0.4,0.7,0.7,0.9
	c-1,1.4-1.7,3-1.9,4.7c-0.6,4.3,0.3,10.2,3.9,13c3.6,2.8,9.9,2.9,14.9,2.6c-0.6,4.9,1.3,9.7,4.9,13c4.6,4.2,10.3,6.7,16.1,6.3
	c2,6.4,8.2,9.7,14,12c1.9,0.8,3.8,1.4,5.8,1.9c1.8,1.5,3.6,2.9,5.6,4.2c3.8,2.4,7.5,5,11,7.8c3.4,3,4.4,7.4,5,11.7
	c1.1,7.7,0.9,15.4,1,23.1c0.1,14.6,0.2,29.1,0.2,43.6c0.1,21,0.1,42,0.1,63v156.6c0,26.4,0,52.8-0.1,79.2c0,23.5,0,47-0.1,70.5v82.8
	H503V863.7c0.1-26.6,0.1-53.2,0.1-79.7V569c0-11.8,0-23.7,0.1-35.5c0-2,0-4.1,0.1-6.1v-0.1c0.1-1.1,0.3-2.2,0.4-3.3
	c0.2-3.9-0.1-7.7,0.3-11.6c0.4-3.2,3.8-7.3,5.8-10.4l3.2-5c0.9,0.2,1.8,0.4,2.7,0.5c4.7,0.7,9.5,0.2,14-1.6
	c5.3-2.3,10.3-6.1,15.1-9.3c3.1-2,5.6-4.8,7.4-8c4.3-0.4,8.4-2.2,11.6-5.1l0.4,0.2c15.6,4.5,32.1-5.5,34.4-21.8
	C599.4,446.7,598.1,440.2,593.7,437.2z"/>
<g>
	<path class="st1" d="M537.1,359.2h0.2c-0.1-0.3-0.2-0.6-0.4-0.9L537.1,359.2z"/>
	<path class="st1" d="M468.9,349.4c0.4,0,0.7-0.1,1.1-0.1c2.6-0.2,5.2-0.5,7.7-1l-2.9,0.2C472.9,348.5,470.9,348.9,468.9,349.4z"/>
	<path class="st1" d="M503.1,784V569c0-11.8,0-23.7,0.1-35.5c0-2,0-4.1,0.1-6.1v-0.1c0.1-1.1,0.3-2.2,0.4-3.3
		c0.2-3.9-0.1-7.7,0.3-11.6c0.4-3.2,3.8-7.3,5.8-10.4l3.2-5c0.9,0.2,1.8,0.4,2.6,0.5c4.7,0.7,9.5,0.2,14-1.6
		c5.3-2.3,10.3-6.1,15.1-9.3c3.1-2,5.6-4.8,7.4-7.9c4.3-0.4,8.4-2.2,11.6-5.1l0.4,0.2c15.6,4.5,32.1-5.5,34.4-21.8
		c0.7-5.2-0.6-11.8-4.9-14.8c0-0.3,0-0.6-0.1-0.9c-0.2-1.7-0.7-3.3-1.3-4.9c-0.2-0.7-0.5-1.3-0.8-2c3.2-7.5,5.8-15.7,5.2-24
		c-0.5-8.7-5.3-16.7-12.8-21.1c-1.4-2.5-3.4-4.7-5.8-6.3c-8.6-6.3-19.3-12.8-30.3-11.7c-1.3-1.9-3-3.6-5-4.7
		c0.2-0.4,0.2-0.9,0.1-1.4c-1.6-10-12.4-16.3-21.2-19.2c-4.9-1.6-10.3-1.9-14.9,0.8c-0.8,0.5-1.6,1-2.3,1.7
		c-7.3-0.3-14.1-1.4-21.2-0.9c-7.4,0.5-16.7-0.2-22,5.7c-1-1.4-2.1-2.6-3.5-3.6c-4-2.8-9.3-2.1-13.2,0.7c-2.2,1.6-3.9,3.7-5.3,6
		c-0.8,1.2-1.5,2.6-1.9,4c-2.9,0.1-5.7,0.8-8.3,2c-7.2,3.3-10.3,10.1-12.8,17.1c-2,1.2-3.9,2.5-5.8,4c-7.5,5.9-12.1,15.1-8,24.4
		c0.2,0.4,0.4,0.7,0.7,1c-1,1.4-1.7,3-1.9,4.8c-0.6,4.3,0.3,10.2,3.9,13c3.6,2.9,9.9,2.9,14.9,2.6c-0.6,4.9,1.3,9.7,5,13
		c4.6,4.2,10.3,6.7,16.1,6.3c2,6.4,8.2,9.7,14,12c1.9,0.8,3.8,1.4,5.8,2c1.8,1.5,3.7,2.9,5.6,4.2c3.8,2.4,7.5,5,11,7.8
		c3.4,3,4.4,7.4,5,11.7c1.1,7.7,0.9,15.4,1,23.1c0.1,14.6,0.2,29.1,0.2,43.6c0.1,21,0.1,42,0.1,63v156.6c0,26.4,0,52.8-0.1,79.2
		c0,23.5,0,47-0.1,70.5v82.8h5.3c0-12.3,0-102.4,0.1-114.7c0-24.7,0-49.4,0.1-74.1V653c0-23.3,0-46.6-0.1-69.9
		c0-18.4-0.1-36.9-0.2-55.3c0-11.1-0.1-22.3-0.2-33.5c0-2.2,0-4.4-0.2-6.6c-0.4-6.2-1-13.8-4.5-19.1c-1.9-2.9-5.2-5-8-6.9
		c-0.9-0.6-1.8-1.3-2.7-1.8c1.3,0.1,2.6,0.3,3.9,0.4c4.6,0.6,9.3,0.7,14,0.6c-0.4,6,1.5,13.1,7.3,15.5c0,1.2,0.1,2.4,0.3,3.5
		c1,4.4,1.6,8.8,4.8,12.2c1.3,1.3,2.8,2.4,4.5,3.3c-2.6,3.7-5,7.5-7.3,11.4c-2.7,4.6-2.1,9.9-2.2,15.1c-0.1,6.3-0.5,12.6-0.6,19
		c-0.1,13.2-0.1,26.3-0.1,39.5V1000h5.3V863.7C503.1,837.1,503.1,810.5,503.1,784z M529.2,490.3l-0.1-0.1c-3.4-4.8-3.8-11-7.6-15.6
		c-3.2-3.6-7-6.5-11.3-8.7c0.2-0.1,0.5-0.2,0.7-0.3c3.5-1.1,7.2-0.2,10.8,0.6c6.9,4.6,7.2,15,11,22
		C531.6,488.9,530.5,489.6,529.2,490.3z M537.2,485.2c-3.1-5.8-4.1-12.6-7.4-18.1h5.3c0.1,0.2,0.2,0.5,0.3,0.7
		c2.8,4.5,3.3,9.7,5.1,14.6c0.1,0.2,0.2,0.4,0.3,0.6C539.6,483.8,538.3,484.5,537.2,485.2L537.2,485.2z M547.5,476.6
		c-0.6,1.2-1.4,2.3-2.4,3.2c-1.4-4.1-2.2-8.3-4-12.2h1.4C548,467.5,549.8,472.1,547.5,476.6L547.5,476.6z M465.3,351.8
		c0.9-1.1,2.2-2,3.6-2.4c1.9-0.5,3.9-0.8,5.9-0.9l2.8-0.2c3.5-0.3,7.1-0.6,10.6-0.7c4.3,0.1,8.6,0.4,12.8,1
		c-0.5,1.3-0.7,2.8-0.7,4.2c0.1,3.4,5.4,3.4,5.3,0c0-3.4,2.3-6.3,5.6-7.2c4.2-1.3,8.9,0.3,12.7,2.1c5,2.4,10.5,5.6,12.8,10.7
		c0.1,0.3,0.3,0.6,0.4,0.9H537c-2.1-0.6-4.3-0.9-6.4-1.2c-8.5-1-17.1,0-25.2,3c-0.5,0.2-1,0.5-1.3,1c-5.3-1.5-11.1,0-16.2,2.3
		c-0.8-4.3-5.1-8-7.9-11.3c-2.2-2.6-6,1.2-3.7,3.7c1.6,1.9,3.3,3.8,4.9,5.7c1.9,2.3,2.1,4.3-0.1,6.5c-2.8,2.8-7.4,3.7-10.7,5.8
		c-1.1-0.1-2.1-0.1-3.2-0.1c1.5-5.1,3.9-12,1.3-16.8c-1.1-1.9-2.4-3.7-3.9-5.4C464.8,352.2,465.1,352,465.3,351.8z M423.9,414
		c-1,1.6-1.8,3.2-2.4,4.9c-2,0.1-4,0.1-6,0s-4.9,0-6.6-1.3c-1.7-1.3-2.2-4.6-2.2-6.7c-0.2-2.4,0.9-4.7,3-6c3-2.2,6.4-3.8,9.3-6.1
		c3.1-2.4,5.9-5.2,8.4-8.2c2.2-2.6-1.6-6.4-3.7-3.7c-3.7,4.6-8.2,8.4-13.3,11.5c-1,0.6-2.1,1.3-3,1.9l0,0
		c-3.5-8.1,3.4-15.6,9.6-19.7c3.2-2.1,6.6-4.1,10.5-4.5c1.9-0.2,3.9-0.2,5.7-0.4c0.9-0.1,1.7-0.3,2.6-0.6c0.4-0.1,2.4-0.7,1.3-0.6
		c3.4-0.1,3.4-5.5,0-5.3c-2.1,0.1-4,1.3-6.2,1.5c-2.4,0-4.9,0.3-7.3,0.8h-0.1c1.9-4.1,4.4-7.8,9-9.6c6.3-2.6,13.1-0.9,19.2,1.6
		c3.2,1.3,4.5-3.9,1.4-5.1c-3.1-1.3-6.4-2.2-9.7-2.7c0.5-0.9,1.6-2.5,1.8-2.8c1-1.6,2.4-2.9,4.1-3.9c3.9-1.9,6.4,0.3,8.8,3.3
		c1.1,1.4,2.2,2.9,3.2,4.3c1.1,1.4,2.6,3.1,3,4.7c0.5,2-0.4,4.7-0.9,6.8s-1,4.1-1.5,6.1c-0.1,0.3-0.1,0.5-0.1,0.8
		c-3.2,0.3-6.3,1-9.3,2.1c-7.9,2.8-11.4,9.6-14.4,16.9c-0.4,0.8-0.3,1.7,0.3,2.3c-2.2,1.5-4.1,3.4-5.7,5.5
		C429.4,405.6,426.5,409.7,423.9,414z M503.5,464c-1.9,1.8-3.4,4.2-4.2,6.7c-3.1-2.3-3.1-7.3-2.7-10.7c0-0.1,0-0.2,0-0.3
		c0.5-0.2,1.1-0.4,1.6-0.6c6.1-3,8.4-10.7,10.1-16.8c0.9-3.3-4.2-4.7-5.1-1.4c-1.3,4.8-3.1,12.2-8.5,13.9
		c-5.1,1.6-12.1,0.6-17.4,0.2c-5.7-0.3-11.4-1.4-16.9-3.1c-4.8-1.6-12.1-4.1-13.9-9.4c0.8-0.3,1.5-0.7,2.2-1.1
		c4.3-2.5,27.6-20.8,31-12.6c1.3,3.1,6.4,1.8,5.1-1.4c-5.1-12.5-20.5-2.2-27.7,2.2c-2.7,1.7-5.3,3.4-7.9,5.1
		c-2.4,1.6-4.9,3.5-7.8,3.9c-5.1,0.8-12.6-3.7-15-8.2c-3.3-6,1.3-12.6,4.7-17.5c3-4.4,7.2-12,12.8-13.3c3.2-0.8,5.6,1.6,8.3,3
		c2,1,4.2,1.5,6.4,1.4c4.4-0.3,8.3-2.8,10.5-6.6c1.7-3-2.9-5.6-4.6-2.7c-2.1,3.7-6.8,5-10.5,2.9l-0.2-0.1c-3.4-1.8-6.4-3.9-10.3-3.2
		c2.6-5.8,5.6-10.8,12.2-12.6c4.8-1.3,9.7-1.7,14.6-1.3c0.2,0.1,0.4,0.1,0.7,0.1c2.7,0.3,5.4,0.8,8.1,1.5c3.3,0.9,4.7-4.2,1.4-5.1
		l-1.6-0.4c2.8-1.1,5.2-2.8,7.1-5.1c5.3-2.8,12.8-6.1,18.6-3.1c5.3,2.8,9.2,8.2,11.3,13.7c1.2,3.2,6.3,1.8,5.1-1.4
		c-2.2-6-6-11.3-11-15.2c5.5-1.7,11.2-2.4,17-2.1c6.3,0.3,14.8,1.4,17.3,8.2c0.8,2.7,1.2,5.6,1.1,8.5c0,1.3,0.3,3.4-1,4.3
		s-3.7,0.6-5.2,0.7c-6.1,0.2-11.9,0.9-15.8,6c-2.1,2.7,2.6,5.4,4.6,2.7c4.3-5.6,13-1.8,18.6-4.4c7.9,3.6,22,17.6,9.9,24.2
		c-4.8,2.6-10,1.8-14.4-1.2c-4.4-3-8.7-6-14-4c-3.2,1.2-1.8,6.3,1.4,5.1c4-1.5,7.2,1.8,10.3,3.9c2,1.4,4.3,2.3,6.7,2.8
		c-0.3,0.9-0.1,1.9,0.5,2.7c2.7,3.1-2.8,7.4-4.5,9.6c-2,2.2-3,5-2.9,7.9c0.6,6.6,7.3,9.1,12.8,10.3c3.3,0.7,4.8-4.4,1.4-5.1
		c-2.9-0.6-6.4-1.3-8.2-3.9c-2.3-3.4,1.7-6.7,3.8-9.1c3-3.6,4.8-8.1,2.4-12.2c5-0.4,9.6-2.9,12.6-6.8c4.2-5.7,1.5-12.7-2.1-18
		c-3.1-4.4-7.2-8-12-10.4c0.8-2.4,0.5-5.3,0.4-7.7c-0.1-1.9-0.3-3.9-0.8-5.8c7,0,13.3,3.2,19.3,6.9c3,1.7,5.8,3.7,8.3,6
		c1.8,1.9,3.7,6.8-0.2,7.7c-3.3,0.8-1.9,5.9,1.4,5.1c2.9-0.7,5.1-3,5.8-5.9c4.4,3.9,7,9.6,6.9,15.6c-0.1,5.7-1.2,11.3-3.3,16.5
		c-0.4-0.6-0.8-1.1-1.3-1.6c-5.7-6.4-14.6-1.9-20.5,2c-2.9,1.9-0.2,6.4,2.7,4.6c2-1.4,4.2-2.5,6.4-3.4c2.8-1.1,5.5-1.9,7.7,0.6
		c2.5,2.8,4.2,6.2,4.9,9.8c-7.7,0-12.8,8.7-17.2,14c-2.2,2.6,1.6,6.4,3.7,3.7c3.1-3.8,6.7-10,11.3-11.9c7.9-3.3,8,8.6,6.7,13.1
		c-3.4,11-14.8,17.5-26,14.7c0.5-1.5,0.8-3.1,0.7-4.7c-0.1-3.4-5.4-3.4-5.3,0c0.2,5.4-3.6,7.8-8.2,8.8c0.2-2.8-0.8-5.5-2.8-7.5
		c-3.9-4.1-9.4-3.1-14.5-3.6c-3.2-0.3-6.4,0-9.6-0.2c-1.1-0.1-2.2-0.3-3.2-0.5c5.3-6.1,9.2-13.6,3-20.7c-3.2-3.7-7.6-6.7-11.4-9.8
		c-3.1-2.6-6.4-5.1-10.6-5.5c-4.5-0.4-8.3,2-11.4,5c-3.4,3.4-7.3,10.2-12.8,9c-3.3-0.7-4.8,4.4-1.4,5.1c9,1.9,13.4-6.3,19.1-11.4
		c4.3-3.9,8.4-2.4,12.6,0.8c3.6,2.9,7.4,5.7,10.8,8.9c1.7,1.6,3.4,3.6,3.3,6.1s-1.6,4.7-3.1,6.7c-1.3,1.6-2.6,3.1-3.9,4.6h-0.2
		C512.5,459.4,507.3,460.3,503.5,464L503.5,464z M505.8,469.5c4.5,2.4,9.3,5,12.3,9.2s3.5,9.3,6.1,13.6c-0.7,0.2-1.4,0.3-2.1,0.3
		c-0.8,0.1-1.6,0.1-2.4,0.1c0-0.2-0.1-0.4-0.1-0.6c-2.6-7.9-7.8-14.3-15.9-16.7C503.9,473.2,504.6,471.2,505.8,469.5L505.8,469.5z
		 M504.5,481.2c4.5,2.2,7.9,6.1,9.5,10.8c-1.7-0.4-3.2-1.1-4.7-2C506.1,487.8,505.1,484.6,504.5,481.2L504.5,481.2z"/>
	<path class="st1" d="M495.1,382.3c-2.6-2.1-6.4,1.6-3.7,3.7c4.3,3.5,7.6,6.8,7.8,12.6c0.2,4.5-0.9,10.5-5.8,12
		c-4.5,1.4-6.6-3.4-10.5-4.5c-3.7-1-7.7,0.1-10.4,2.8c-2.4,2.4,1.3,6.2,3.7,3.7c4.9-4.8,8.6,2.5,13.3,3.4c4.7,0.7,9.3-1.3,12-5.2
		c3-4.3,3.5-10,2.8-15.1C503.3,389.9,499.6,386,495.1,382.3z"/>
</g>
</svg>
