<?xml version="1.0" encoding="utf-8"?>
<!-- Generator: Adobe Illustrator 24.0.0, SVG Export Plug-In . SVG Version: 6.00 Build 0)  -->
<svg version="1.1" id="Layer_1" xmlns="http://www.w3.org/2000/svg" xmlns:xlink="http://www.w3.org/1999/xlink" x="0px" y="0px"
	 viewBox="0 0 558 36" style="enable-background:new 0 0 558 36;" xml:space="preserve">
<style type="text/css">
	.st0{fill:none;stroke:#000000;stroke-width:2.5;stroke-miterlimit:10;}
</style>
<path class="st0" d="M278.89,18.49L278.89,18.49c-6.09-3.64-13.69-3.64-19.78,0v0h-0.03l0,0c-6.09,3.64-13.69,3.64-19.78,0l0,0
	h-0.03l0,0c-6.09-3.64-13.69-3.64-19.78,0v0h-0.03l0,0c-6.09,3.64-13.69,3.64-19.78,0v0h-0.03l0,0c-6.09-3.64-13.69-3.64-19.78,0
	l0,0h-0.03v0c-6.09,3.64-13.69,3.64-19.78,0l0,0h-0.03v0c-6.09-3.64-13.69-3.64-19.78,0l0,0h-0.03l0,0
	c-6.09,3.64-13.69,3.64-19.78,0l0,0h-0.03l0,0c-6.09-3.64-13.69-3.64-19.78,0l0,0h-0.03l0,0c-6.09,3.64-13.69,3.64-19.78,0l0,0
	h-0.03l0,0c-6.09-3.64-13.69-3.64-19.78,0l0,0h-0.03l0,0c-6.09,3.64-13.69,3.64-19.78,0l0,0H41.1l0,0c-6.09-3.64-13.69-3.64-19.78,0
	l0,0h-0.03l0,0c-6.09,3.64-13.69,3.64-19.78,0l0,0"/>
<path class="st0" d="M556.04,18.49L556.04,18.49c-6.09-3.64-13.69-3.64-19.78,0l0,0h-0.03v0c-6.09,3.64-13.69,3.64-19.78,0v0h-0.03
	v0c-6.09-3.64-13.69-3.64-19.78,0v0h-0.03l0,0c-6.09,3.64-13.69,3.64-19.78,0v0h-0.03v0c-6.09-3.64-13.69-3.64-19.78,0l0,0h-0.03v0
	c-6.09,3.64-13.69,3.64-19.78,0v0h-0.03l0,0c-6.09-3.64-13.69-3.64-19.78,0v0h-0.03v0c-6.09,3.64-13.69,3.64-19.78,0v0h-0.03l0,0
	c-6.09-3.64-13.69-3.64-19.78,0v0h-0.03v0c-6.09,3.64-13.69,3.64-19.78,0l0,0h-0.03v0c-6.09-3.64-13.69-3.64-19.78,0v0h-0.03l0,0
	c-6.09,3.64-13.69,3.64-19.78,0v0h-0.03v0c-6.09-3.64-13.69-3.64-19.78,0l0,0h-0.03v0c-6.09,3.64-13.69,3.64-19.78,0v0"/>
</svg>
